<svg xmlns="http://www.w3.org/2000/svg" xmlns:xlink="http://www.w3.org/1999/xlink" width="141.69899999999998" height="38.04" data-adreal-did="1601283224162783"><path fill="#f00" d="M9.35 21.43L9.35 30.11L11.79 30.11L11.79 7.45L8.15 7.45C4.56 7.45 1.55 9.83 1.55 14.58C1.55 17.97 2.88 19.81 4.88 20.83L0.63 30.11L3.46 30.11L7.32 21.43ZM9.35 19.40L8.05 19.40C5.93 19.40 4.18 18.23 4.18 14.58C4.18 10.81 6.09 9.51 8.05 9.51L9.35 9.51Z"/><path fill="#000" d="M36.26 28.09L35.00 28.09L35.00 14.14L27.58 14.14L27.58 15.50C27.58 19.75 27.42 24.69 25.96 28.09L24.98 28.09L24.98 33.25L27.20 33.25L27.20 30.11L34.05 30.11L34.05 33.25L36.26 33.25ZM47.01 29.04L46.44 27.14C45.81 27.58 44.70 28.21 43.30 28.21C41.34 28.21 40.32 26.31 40.32 22.70L46.98 22.70L46.98 21.33C46.98 15.91 45.24 13.92 42.57 13.92C39.18 13.92 37.75 17.66 37.75 22.79C37.75 27.71 39.78 30.34 43.08 30.34C44.67 30.34 46.00 29.83 47.01 29.04ZM21.11 14.14L21.11 20.92L17.43 20.92L17.43 14.14L14.96 14.14L14.96 30.11L17.43 30.11L17.43 22.95L21.11 22.95L21.11 30.11L23.55 30.11L23.55 14.14ZM56.20 30.11L58.90 30.11L54.37 21.65L58.33 14.14L55.82 14.14L51.99 21.52L51.99 14.14L49.52 14.14L49.52 30.11L51.99 30.11L51.99 22.16ZM64.70 30.34C66.16 30.34 67.17 29.86 68.03 29.13L67.46 27.29C66.89 27.80 65.97 28.28 64.76 28.28C62.77 28.28 61.81 25.99 61.81 22.00C61.81 17.97 63.08 15.98 64.86 15.98C65.87 15.98 66.82 16.52 67.49 17.09L67.84 14.74C67.14 14.30 66.32 13.92 64.89 13.92C61.15 13.92 59.22 17.12 59.22 22.13C59.22 27.58 61.28 30.34 64.70 30.34ZM32.56 28.09L28.31 28.09C29.64 24.69 29.80 19.78 29.80 16.42L29.80 16.14L32.56 16.14ZM42.57 15.95C44.00 15.95 44.44 17.94 44.44 20.67L40.35 20.67C40.51 17.82 41.05 15.95 42.57 15.95ZM79.28 12.39C79.47 11.35 79.69 10.18 79.79 9.41L79.85 9.41C79.88 10.18 80.04 11.44 80.23 12.43L82.20 21.78L77.35 21.78ZM83.94 30.11L85.49 30.11L80.71 7.45L79.06 7.45L74.24 30.11L75.64 30.11L77.09 23.08L82.45 23.08ZM94.62 35.06L94.62 30.34C97.86 30.18 100.65 27.45 100.65 22.13C100.65 16.83 97.86 14.11 94.62 13.92L94.62 8.40L93.04 8.40L93.04 13.92C89.81 14.07 87.02 16.80 87.02 22.13C87.02 27.42 89.74 30.15 93.04 30.34L93.04 35.06ZM88.54 22.13C88.54 17.59 90.60 15.34 93.04 15.15L93.04 29.13C90.66 28.88 88.54 26.69 88.54 22.13ZM99.13 22.13C99.13 26.66 97.07 28.88 94.62 29.13L94.62 15.15C97.00 15.18 99.13 17.56 99.13 22.13ZM110.70 30.11L112.12 30.11L112.12 14.14L110.82 14.14L105.62 25.36C105.31 26.06 104.99 26.75 104.77 27.48L104.67 27.48C104.74 26.79 104.80 26.09 104.80 25.23L104.80 14.14L103.41 14.14L103.41 30.11L104.67 30.11L109.87 18.86C110.22 18.16 110.51 17.50 110.73 16.80L110.82 16.80C110.76 17.47 110.70 18.16 110.70 18.99ZM115.70 30.11L128.80 30.11L128.80 14.14L127.31 14.14L127.31 28.91L123.00 28.91L123.00 14.14L121.51 14.14L121.51 28.91L117.19 28.91L117.19 14.14L115.70 14.14ZM135.49 29.23C133.96 29.23 132.98 27.93 132.98 25.68C132.98 22.89 134.25 21.68 136.88 21.68L138.59 21.68L138.59 26.09C138.02 27.80 136.98 29.23 135.49 29.23ZM139.04 30.11L140.40 30.11C140.21 29.51 140.05 28.28 140.05 27.17L140.05 18.45C140.05 15.28 138.56 13.82 135.93 13.82C134.12 13.82 132.79 14.61 132.16 15.44L132.57 16.86C133.33 15.75 134.57 15.12 135.93 15.12C137.67 15.12 138.59 16.17 138.59 18.61L138.59 20.60L136.85 20.60C133.39 20.60 131.52 22.38 131.52 25.80C131.52 28.72 133.01 30.43 135.17 30.43C136.75 30.43 137.89 29.48 138.66 27.96C138.75 29.10 138.91 29.70 139.04 30.11Z"/></svg>