<svg xmlns="http://www.w3.org/2000/svg" xmlns:xlink="http://www.w3.org/1999/xlink" width="153.3646" height="38.04"><path fill="#f00" d="M9.35 21.43L9.35 30.11L11.79 30.11L11.79 7.45L8.15 7.45C4.56 7.45 1.55 9.83 1.55 14.58C1.55 17.97 2.88 19.81 4.88 20.83L0.63 30.11L3.46 30.11L7.32 21.43ZM9.35 19.40L8.05 19.40C5.93 19.40 4.18 18.23 4.18 14.58C4.18 10.81 6.09 9.51 8.05 9.51L9.35 9.51Z"/><path fill="#000" d="M36.26 28.09L35.00 28.09L35.00 14.14L27.58 14.14L27.58 15.50C27.58 19.75 27.42 24.69 25.96 28.09L24.98 28.09L24.98 33.25L27.20 33.25L27.20 30.11L34.05 30.11L34.05 33.25L36.26 33.25ZM47.01 29.04L46.44 27.14C45.81 27.58 44.70 28.21 43.30 28.21C41.34 28.21 40.32 26.31 40.32 22.70L46.98 22.70L46.98 21.33C46.98 15.91 45.24 13.92 42.57 13.92C39.18 13.92 37.75 17.66 37.75 22.79C37.75 27.71 39.78 30.34 43.08 30.34C44.67 30.34 46.00 29.83 47.01 29.04ZM21.11 14.14L21.11 20.92L17.43 20.92L17.43 14.14L14.96 14.14L14.96 30.11L17.43 30.11L17.43 22.95L21.11 22.95L21.11 30.11L23.55 30.11L23.55 14.14ZM56.20 30.11L58.90 30.11L54.37 21.65L58.33 14.14L55.82 14.14L51.99 21.52L51.99 14.14L49.52 14.14L49.52 30.11L51.99 30.11L51.99 22.16ZM64.70 30.34C66.16 30.34 67.17 29.86 68.03 29.13L67.46 27.29C66.89 27.80 65.97 28.28 64.76 28.28C62.77 28.28 61.81 25.99 61.81 22.00C61.81 17.97 63.08 15.98 64.86 15.98C65.87 15.98 66.82 16.52 67.49 17.09L67.84 14.74C67.14 14.30 66.32 13.92 64.89 13.92C61.15 13.92 59.22 17.12 59.22 22.13C59.22 27.58 61.28 30.34 64.70 30.34ZM32.56 28.09L28.31 28.09C29.64 24.69 29.80 19.78 29.80 16.42L29.80 16.14L32.56 16.14ZM42.57 15.95C44.00 15.95 44.44 17.94 44.44 20.67L40.35 20.67C40.51 17.82 41.05 15.95 42.57 15.95ZM75.45 30.15C78.17 30.15 79.31 27.64 80.14 24.57L84.73 7.45L83.28 7.45L79.44 22.06L75.51 7.45L73.92 7.45L78.65 24.73C77.92 27.10 77.13 28.75 75.45 28.75C75.07 28.75 74.81 28.69 74.69 28.63L74.84 30.11C75.00 30.11 75.19 30.15 75.45 30.15ZM93.83 30.11L93.83 14.14L92.34 14.14L92.34 21.33C92.34 21.33 91.39 22.57 89.65 22.57C88.16 22.57 87.24 21.65 87.24 19.37L87.24 14.14L85.75 14.14L85.75 19.34C85.75 22.35 87.17 23.84 89.39 23.84C91.30 23.84 92.34 22.82 92.34 22.82L92.34 30.11ZM98.02 22.38L105.24 22.38C105.75 16.71 103.98 13.82 101.22 13.82C98.52 13.82 96.56 16.90 96.56 22.13C96.56 27.36 98.11 30.43 101.50 30.43C104.04 30.43 105.24 28.63 105.24 28.63L104.77 27.42C104.77 27.42 103.66 29.13 101.54 29.13C99.22 29.13 98.08 26.75 98.02 22.38ZM101.22 15.06C102.83 15.06 104.10 16.96 103.85 21.21L98.05 21.21C98.17 17.21 99.54 15.06 101.22 15.06ZM112.47 30.43C115.32 30.43 117.45 27.26 117.45 22.00C117.45 16.80 115.58 14.01 112.79 14.01C110.89 14.01 109.62 15.22 108.83 17.37C109.27 11.54 110.70 9.10 113.83 9.00C115.29 8.97 116.24 8.72 116.81 8.12L116.43 6.88C115.83 7.35 115.23 7.64 113.80 7.67C108.98 7.80 107.40 11.82 107.40 21.08C107.40 27.55 109.56 30.43 112.47 30.43ZM112.44 29.23C110.41 29.23 108.89 26.69 108.89 21.43L108.89 19.15C109.56 16.77 111.08 15.22 112.69 15.22C114.56 15.22 115.96 17.59 115.96 22.13C115.96 26.53 114.44 29.23 112.44 29.23ZM127.12 30.11L128.61 30.11L128.61 14.14L127.12 14.14L127.12 21.21L121.66 21.21L121.66 14.14L120.17 14.14L120.17 30.11L121.66 30.11L121.66 22.41L127.12 22.41ZM139.48 30.11L140.91 30.11L140.91 14.14L139.61 14.14L134.41 25.36C134.09 26.06 133.77 26.75 133.55 27.48L133.46 27.48C133.52 26.79 133.58 26.09 133.58 25.23L133.58 14.14L132.19 14.14L132.19 30.11L133.46 30.11L138.66 18.86C139.00 18.16 139.29 17.50 139.51 16.80L139.61 16.80C139.54 17.47 139.48 18.16 139.48 18.99ZM145.98 21.84L151.53 30.11L153.17 30.11L147.53 21.56L152.79 14.14L151.34 14.14L145.98 21.65L145.98 14.14L144.49 14.14L144.49 30.11L145.98 30.11Z"/></svg>